999
last saved by ezdxf 0.8.2 on 2018-02-02 10:19:16
  0
SECTION
  2
HEADER
  9
$ACADVER
  1
AC1021
  9
$ACADMAINTVER
 70
50
  9
$DWGCODEPAGE
  3
ANSI_1252
  9
$LASTSAVEDBY
  1
unknown
  9
$INSBASE
 10
0.0
 20
0.0
 30
0.0
  9
$EXTMIN
 10
1e+20
 20
1e+20
 30
1e+20
  9
$EXTMAX
 10
-1e+20
 20
-1e+20
 30
-1e+20
  9
$LIMMIN
 10
0.0
 20
0.0
  9
$LIMMAX
 10
12.0
 20
9.0
  9
$ORTHOMODE
 70
0
  9
$REGENMODE
 70
1
  9
$FILLMODE
 70
1
  9
$QTEXTMODE
 70
0
  9
$MIRRTEXT
 70
0
  9
$LTSCALE
 40
1.0
  9
$ATTMODE
 70
1
  9
$TEXTSIZE
 40
0.2
  9
$TRACEWID
 40
0.05
  9
$TEXTSTYLE
  7
Notes
  9
$CLAYER
  8
0
  9
$CELTYPE
  6
ByLayer
  9
$CECOLOR
 62
256
  9
$CELTSCALE
 40
1.0
  9
$DISPSILH
 70
0
  9
$DIMSCALE
 40
1.0
  9
$DIMASZ
 40
3.0
  9
$DIMEXO
 40
1.5
  9
$DIMDLI
 40
6.0
  9
$DIMRND
 40
0.0
  9
$DIMDLE
 40
0.0
  9
$DIMEXE
 40
3.0
  9
$DIMTP
 40
0.0
  9
$DIMTM
 40
0.0
  9
$DIMTXT
 40
3.0
  9
$DIMCEN
 40
3.0
  9
$DIMTSZ
 40
0.0
  9
$DIMTOL
 70
0
  9
$DIMLIM
 70
0
  9
$DIMTIH
 70
0
  9
$DIMTOH
 70
0
  9
$DIMSE1
 70
0
  9
$DIMSE2
 70
0
  9
$DIMTAD
 70
1
  9
$DIMZIN
 70
3
  9
$DIMBLK
  1

  9
$DIMASO
 70
1
  9
$DIMSHO
 70
1
  9
$DIMPOST
  1

  9
$DIMAPOST
  1

  9
$DIMALT
 70
0
  9
$DIMALTD
 70
2
  9
$DIMALTF
 40
25.4
  9
$DIMLFAC
 40
1.0
  9
$DIMTOFL
 70
0
  9
$DIMTVP
 40
0.0
  9
$DIMTIX
 70
0
  9
$DIMSOXD
 70
0
  9
$DIMSAH
 70
0
  9
$DIMBLK1
  1

  9
$DIMBLK2
  1

  9
$DIMSTYLE
  2
Civil-Metric
  9
$DIMCLRD
 70
0
  9
$DIMCLRE
 70
0
  9
$DIMCLRT
 70
0
  9
$DIMTFAC
 40
1.0
  9
$DIMGAP
 40
2.0
  9
$DIMJUST
 70
0
  9
$DIMSD1
 70
0
  9
$DIMSD2
 70
0
  9
$DIMTOLJ
 70
1
  9
$DIMTZIN
 70
0
  9
$DIMALTZ
 70
0
  9
$DIMALTTZ
 70
0
  9
$DIMUPT
 70
0
  9
$DIMDEC
 70
2
  9
$DIMTDEC
 70
2
  9
$DIMALTU
 70
2
  9
$DIMALTTD
 70
2
  9
$DIMTXSTY
  7
Standard
  9
$DIMAUNIT
 70
0
  9
$DIMADEC
 70
2
  9
$DIMALTRND
 40
0.0
  9
$DIMAZIN
 70
2
  9
$DIMDSEP
 70
46
  9
$DIMATFIT
 70
3
  9
$DIMFRAC
 70
1
  9
$DIMLDRBLK
  1

  9
$DIMLUNIT
 70
2
  9
$DIMLWD
 70
-2
  9
$DIMLWE
 70
-2
  9
$DIMTMOVE
 70
0
  9
$DIMFXL
 40
1.0
  9
$DIMFXLON
 70
0
  9
$DIMJOGANG
 40
0.7853981633974483
  9
$DIMTFILL
 70
0
  9
$DIMTFILLCLR
 70
0
  9
$DIMARCSYM
 70
0
  9
$DIMLTYPE
  6

  9
$DIMLTEX1
  6

  9
$DIMLTEX2
  6

  9
$LUNITS
 70
2
  9
$LUPREC
 70
4
  9
$SKETCHINC
 40
0.1
  9
$FILLETRAD
 40
0.0
  9
$AUNITS
 70
4
  9
$AUPREC
 70
5
  9
$MENU
  1
.
  9
$ELEVATION
 40
0.0
  9
$PELEVATION
 40
0.0
  9
$THICKNESS
 40
0.0
  9
$LIMCHECK
 70
0
  9
$CHAMFERA
 40
0.0
  9
$CHAMFERB
 40
0.0
  9
$CHAMFERC
 40
0.0
  9
$CHAMFERD
 40
0.0
  9
$SKPOLY
 70
0
  9
$TDCREATE
 40
2458152.430034722
  9
$TDUPDATE
 40
2458152.430046296
  9
$TDINDWG
 40
0.0
  9
$TDUSRTIMER
 40
0.0
  9
$USRTIMER
 70
1
  9
$ANGBASE
 50
0.0
  9
$ANGDIR
 70
0
  9
$PDMODE
 70
0
  9
$PDSIZE
 40
0.0
  9
$PLINEWID
 40
0.0
  9
$SPLFRAME
 70
0
  9
$SPLINETYPE
 70
6
  9
$SPLINESEGS
 70
8
  9
$HANDSEED
  5
6D3
  9
$SURFTAB1
 70
6
  9
$SURFTAB2
 70
6
  9
$SURFTYPE
 70
6
  9
$SURFU
 70
6
  9
$SURFV
 70
6
  9
$UCSBASE
  2

  9
$UCSNAME
  2

  9
$UCSORG
 10
0.0
 20
0.0
 30
0.0
  9
$UCSXDIR
 10
1.0
 20
0.0
 30
0.0
  9
$UCSYDIR
 10
0.0
 20
1.0
 30
0.0
  9
$UCSORTHOREF
  2

  9
$UCSORTHOVIEW
 70
0
  9
$UCSORGTOP
 10
0.0
 20
0.0
 30
0.0
  9
$UCSORGBOTTOM
 10
0.0
 20
0.0
 30
0.0
  9
$UCSORGLEFT
 10
0.0
 20
0.0
 30
0.0
  9
$UCSORGRIGHT
 10
0.0
 20
0.0
 30
0.0
  9
$UCSORGFRONT
 10
0.0
 20
0.0
 30
0.0
  9
$UCSORGBACK
 10
0.0
 20
0.0
 30
0.0
  9
$PUCSBASE
  2

  9
$PUCSNAME
  2

  9
$PUCSORG
 10
0.0
 20
0.0
 30
0.0
  9
$PUCSXDIR
 10
1.0
 20
0.0
 30
0.0
  9
$PUCSYDIR
 10
0.0
 20
1.0
 30
0.0
  9
$PUCSORTHOREF
  2

  9
$PUCSORTHOVIEW
 70
0
  9
$PUCSORGTOP
 10
0.0
 20
0.0
 30
0.0
  9
$PUCSORGBOTTOM
 10
0.0
 20
0.0
 30
0.0
  9
$PUCSORGLEFT
 10
0.0
 20
0.0
 30
0.0
  9
$PUCSORGRIGHT
 10
0.0
 20
0.0
 30
0.0
  9
$PUCSORGFRONT
 10
0.0
 20
0.0
 30
0.0
  9
$PUCSORGBACK
 10
0.0
 20
0.0
 30
0.0
  9
$USERI1
 70
0
  9
$USERI2
 70
0
  9
$USERI3
 70
0
  9
$USERI4
 70
0
  9
$USERI5
 70
0
  9
$USERR1
 40
0.0
  9
$USERR2
 40
0.0
  9
$USERR3
 40
0.0
  9
$USERR4
 40
0.0
  9
$USERR5
 40
0.0
  9
$WORLDVIEW
 70
1
  9
$SHADEDGE
 70
3
  9
$SHADEDIF
 70
70
  9
$TILEMODE
 70
1
  9
$MAXACTVP
 70
64
  9
$PINSBASE
 10
0.0
 20
0.0
 30
0.0
  9
$PLIMCHECK
 70
0
  9
$PEXTMIN
 10
0.62886676639706
 20
0.7999999523162842
 30
0.0
  9
$PEXTMAX
 10
9.028866384927335
 20
7.199999570846558
 30
0.0
  9
$PLIMMIN
 10
-0.7005418191744587
 20
-0.2281003861915408
  9
$PLIMMAX
 10
10.29945794052965
 20
8.27189937351257
  9
$UNITMODE
 70
0
  9
$VISRETAIN
 70
1
  9
$PLINEGEN
 70
0
  9
$PSLTSCALE
 70
1
  9
$TREEDEPTH
 70
3020
  9
$CMLSTYLE
  2
Standard
  9
$CMLJUST
 70
0
  9
$CMLSCALE
 40
1.0
  9
$PROXYGRAPHICS
 70
1
  9
$MEASUREMENT
 70
1
  9
$CELWEIGHT
370
-1
  9
$ENDCAPS
280
0
  9
$JOINSTYLE
280
0
  9
$LWDISPLAY
290
0
  9
$INSUNITS
 70
4
  9
$HYPERLINKBASE
  1

  9
$STYLESHEET
  1

  9
$XEDIT
290
1
  9
$CEPSNTYPE
380
0
  9
$PSTYLEMODE
290
1
  9
$FINGERPRINTGUID
  2
{39DB1BDD-BC6C-46D3-A333-DFCC0DC4782D}
  9
$VERSIONGUID
  2
{69EEBB2D-7039-498F-9366-3F994E4A07E7}
  9
$EXTNAMES
290
1
  9
$PSVPSCALE
 40
0.0
  9
$OLESTARTUP
290
0
  9
$SORTENTS
280
127
  9
$INDEXCTL
280
0
  9
$HIDETEXT
280
1
  9
$XCLIPFRAME
290
0
  9
$HALOGAP
280
0
  9
$OBSCOLOR
 70
257
  9
$OBSLTYPE
280
0
  9
$INTERSECTIONDISPLAY
280
0
  9
$INTERSECTIONCOLOR
 70
257
  9
$DIMASSOC
280
2
  9
$PROJECTNAME
  1

  9
$CAMERADISPLAY
290
0
  9
$LENSLENGTH
 40
50.0
  9
$CAMERAHEIGHT
 40
0.0
  9
$STEPSPERSEC
 40
2.0
  9
$STEPSIZE
 40
6.0
  9
$3DDWFPREC
 40
2.0
  9
$PSOLWIDTH
 40
0.25
  9
$PSOLHEIGHT
 40
4.0
  9
$LOFTANG1
 40
1.570796326794896
  9
$LOFTANG2
 40
1.570796326794896
  9
$LOFTMAG1
 40
0.0
  9
$LOFTMAG2
 40
0.0
  9
$LOFTPARAM
 70
7
  9
$LOFTNORMALS
280
1
  9
$LATITUDE
 40
37.795
  9
$LONGITUDE
 40
-122.394
  9
$NORTHDIRECTION
 40
0.0
  9
$TIMEZONE
 70
-8000
  9
$LIGHTGLYPHDISPLAY
280
1
  9
$TILEMODELIGHTSYNCH
280
1
  9
$CMATERIAL
347
96
  9
$SOLIDHIST
280
1
  9
$SHOWHIST
280
1
  9
$DWFFRAME
280
2
  9
$DGNFRAME
280
0
  9
$REALWORLDSCALE
290
1
  9
$INTERFERECOLOR
 62
1
  9
$INTERFEREOBJVS
345
A3
  9
$INTERFEREVPVS
346
A0
  9
$CSHADOW
280
0
  9
$SHADOWPLANELOCATION
 40
0.0
  0
ENDSEC
  0
SECTION
  2
CLASSES
  0
CLASS
  1
ACDBDICTIONARYWDFLT
  2
AcDbDictionaryWithDefault
  3
ObjectDBX Classes
 90
0
 91
1
280
0
281
0
  0
CLASS
  1
DICTIONARYVAR
  2
AcDbDictionaryVar
  3
ObjectDBX Classes
 90
0
 91
13
280
0
281
0
  0
CLASS
  1
TABLESTYLE
  2
AcDbTableStyle
  3
ObjectDBX Classes
 90
4095
 91
1
280
0
281
0
  0
CLASS
  1
MATERIAL
  2
AcDbMaterial
  3
ObjectDBX Classes
 90
1153
 91
3
280
0
281
0
  0
CLASS
  1
VISUALSTYLE
  2
AcDbVisualStyle
  3
ObjectDBX Classes
 90
4095
 91
19
280
0
281
0
  0
CLASS
  1
SCALE
  2
AcDbScale
  3
ObjectDBX Classes
 90
1153
 91
17
280
0
281
0
  0
CLASS
  1
MLEADERSTYLE
  2
AcDbMLeaderStyle
  3
ACDB_MLEADERSTYLE_CLASS
 90
4095
 91
3
280
0
281
0
  0
CLASS
  1
CELLSTYLEMAP
  2
AcDbCellStyleMap
  3
ObjectDBX Classes
 90
1152
 91
4
280
0
281
0
  0
CLASS
  1
EXACXREFPANELOBJECT
  2
ExAcXREFPanelObject
  3
EXAC_ESW
 90
1025
 91
0
280
0
281
0
  0
CLASS
  1
NPOCOLLECTION
  2
AcDbImpNonPersistentObjectsCollection
  3
ObjectDBX Classes
 90
1153
 91
0
280
0
281
0
  0
CLASS
  1
LAYER_INDEX
  2
AcDbLayerIndex
  3
ObjectDBX Classes
 90
0
 91
0
280
0
281
0
  0
CLASS
  1
SPATIAL_INDEX
  2
AcDbSpatialIndex
  3
ObjectDBX Classes
 90
0
 91
0
280
0
281
0
  0
CLASS
  1
IDBUFFER
  2
AcDbIdBuffer
  3
ObjectDBX Classes
 90
0
 91
0
280
0
281
0
  0
CLASS
  1
DIMASSOC
  2
AcDbDimAssoc
  3
"AcDbDimAssoc|Product Desc:     AcDim ARX App For Dimension|Company:          Autodesk, Inc.|WEB Address:      www.autodesk.com"
 90
0
 91
0
280
0
281
0
  0
CLASS
  1
IMAGEDEF
  2
AcDbRasterImageDef
  3
ISM
 90
0
 91
1
280
0
281
0
  0
CLASS
  1
RASTERVARIABLES
  2
AcDbRasterVariables
  3
ISM
 90
0
 91
1
280
0
281
0
  0
CLASS
  1
IMAGEDEF_REACTOR
  2
AcDbRasterImageDefReactor
  3
ISM
 90
1
 91
1
280
0
281
0
  0
CLASS
  1
IMAGE
  2
AcDbRasterImage
  3
ISM
 90
2175
 91
1
280
0
281
1
  0
CLASS
  1
PDFDEFINITION
  2
AcDbPdfDefinition
  3
ObjectDBX Classes
 90
1153
 91
1
280
0
281
0
  0
CLASS
  1
PDFUNDERLAY
  2
AcDbPdfReference
  3
ObjectDBX Classes
 90
4095
 91
1
280
0
281
1
  0
CLASS
  1
DWFDEFINITION
  2
AcDbDwfDefinition
  3
ObjectDBX Classes
 90
1153
 91
2
280
0
281
0
  0
CLASS
  1
DWFUNDERLAY
  2
AcDbDwfReference
  3
ObjectDBX Classes
 90
1153
 91
1
280
0
281
1
  0
CLASS
  1
DGNDEFINITION
  2
AcDbDgnDefinition
  3
ObjectDBX Classes
 90
1153
 91
2
280
0
281
0
  0
CLASS
  1
DGNUNDERLAY
  2
AcDbDgnReference
  3
ObjectDBX Classes
 90
1153
 91
1
280
0
281
1
  0
ENDSEC
  0
SECTION
  2
TABLES
  0
TABLE
  2
VPORT
  5
8
330
0
100
AcDbSymbolTable
 70
0
  0
ENDTAB
  0
TABLE
  2
LTYPE
  5
5
330
0
100
AcDbSymbolTable
 70
7
  0
LTYPE
  5
14
330
5
100
AcDbSymbolTableRecord
100
AcDbLinetypeTableRecord
  2
ByBlock
 70
0
  3

 72
65
 73
0
 40
0.0
  0
LTYPE
  5
15
330
5
100
AcDbSymbolTableRecord
100
AcDbLinetypeTableRecord
  2
ByLayer
 70
0
  3

 72
65
 73
0
 40
0.0
  0
LTYPE
  5
16
330
5
100
AcDbSymbolTableRecord
100
AcDbLinetypeTableRecord
  2
Continuous
 70
0
  3
Solid line
 72
65
 73
0
 40
0.0
  0
LTYPE
  5
1B1
330
5
100
AcDbSymbolTableRecord
100
AcDbLinetypeTableRecord
  2
CENTER
 70
0
  3
Center ____ _ ____ _ ____ _ ____ _ ____ _ ____
 72
65
 73
4
 40
2.0
 49
1.25
 74
0
 49
-0.25
 74
0
 49
0.25
 74
0
 49
-0.25
 74
0
  0
LTYPE
  5
1B2
330
5
100
AcDbSymbolTableRecord
100
AcDbLinetypeTableRecord
  2
DASHED
 70
0
  3
Dashed __ __ __ __ __ __ __ __ __ __ __ __ __ _
 72
65
 73
2
 40
0.75
 49
0.5
 74
0
 49
-0.25
 74
0
  0
LTYPE
  5
1B3
330
5
100
AcDbSymbolTableRecord
100
AcDbLinetypeTableRecord
  2
PHANTOM
 70
0
  3
Phantom ______  __  __  ______  __  __  ______
 72
65
 73
6
 40
2.5
 49
1.25
 74
0
 49
-0.25
 74
0
 49
0.25
 74
0
 49
-0.25
 74
0
 49
0.25
 74
0
 49
-0.25
 74
0
  0
LTYPE
  5
39E
330
5
100
AcDbSymbolTableRecord
100
AcDbLinetypeTableRecord
  2
HIDDEN
 70
0
  3
Hidden __ __ __ __ __ __ __ __ __ __ __ __ __ __
 72
65
 73
2
 40
9.525
 49
6.35
 74
0
 49
-3.175
 74
0
  0
ENDTAB
  0
TABLE
  2
LAYER
  5
2
330
0
100
AcDbSymbolTable
 70
7
  0
LAYER
  5
10
330
2
100
AcDbSymbolTableRecord
100
AcDbLayerTableRecord
  2
0
 70
0
 62
7
  6
Continuous
370
-3
390
F
347
98
  0
LAYER
  5
1B4
330
2
100
AcDbSymbolTableRecord
100
AcDbLayerTableRecord
  2
View Port
 70
0
 62
7
  6
Continuous
290
0
370
-3
390
F
347
98
  0
LAYER
  5
21D
330
2
100
AcDbSymbolTableRecord
100
AcDbLayerTableRecord
  2
Defpoints
 70
0
 62
7
  6
Continuous
290
0
370
-3
390
F
347
98
  0
LAYER
  5
58E
330
2
100
AcDbSymbolTableRecord
100
AcDbLayerTableRecord
  2
Text
 70
0
 62
7
  6
Continuous
290
1
390
503
  0
LAYER
  5
58F
330
2
100
AcDbSymbolTableRecord
100
AcDbLayerTableRecord
  2
P3mm
 70
0
 62
7
  6
Continuous
290
1
390
503
  0
LAYER
  5
590
330
2
100
AcDbSymbolTableRecord
100
AcDbLayerTableRecord
  2
P4mm
 70
0
 62
7
  6
Continuous
290
1
390
503
  0
LAYER
  5
591
330
2
100
AcDbSymbolTableRecord
100
AcDbLayerTableRecord
  2
P5mm
 70
0
 62
7
  6
Continuous
290
1
390
503
  0
ENDTAB
  0
TABLE
  2
STYLE
  5
3
330
0
100
AcDbSymbolTable
 70
4
  0
STYLE
  5
11
330
3
100
AcDbSymbolTableRecord
100
AcDbTextStyleTableRecord
  2
Standard
 70
0
 40
0.0
 41
1.0
 50
0.0
 71
0
 42
0.2
  3
arial.ttf
  4

  0
STYLE
  5
DC
330
3
100
AcDbSymbolTableRecord
100
AcDbTextStyleTableRecord
  2
Annotative
 70
0
 40
0.0
 41
1.0
 50
0.0
 71
0
 42
0.2
  3
arial.ttf
  4

  0
STYLE
  5
178
330
3
100
AcDbSymbolTableRecord
100
AcDbTextStyleTableRecord
  2
Notes
 70
0
 40
3.0
 41
1.0
 50
0.0
 71
0
 42
0.2
  3
arial.ttf
  4

  0
STYLE
  5
58D
330
3
100
AcDbSymbolTableRecord
100
AcDbTextStyleTableRecord
  2
custom
 70
0
 40
0.0
 41
0.8
 50
0.0
 71
0
 42
0.2
  3
arial.ttf
  4

  0
ENDTAB
  0
TABLE
  2
VIEW
  5
6
330
0
100
AcDbSymbolTable
 70
0
  0
ENDTAB
  0
TABLE
  2
UCS
  5
7
330
0
100
AcDbSymbolTable
 70
0
  0
ENDTAB
  0
TABLE
  2
APPID
  5
9
330
0
100
AcDbSymbolTable
 70
11
  0
APPID
  5
12
330
9
100
AcDbSymbolTableRecord
100
AcDbRegAppTableRecord
  2
ACAD
 70
0
  0
APPID
  5
DD
330
9
100
AcDbSymbolTableRecord
100
AcDbRegAppTableRecord
  2
AcadAnnoPO
 70
0
  0
APPID
  5
DE
330
9
100
AcDbSymbolTableRecord
100
AcDbRegAppTableRecord
  2
AcadAnnotative
 70
0
  0
APPID
  5
DF
330
9
100
AcDbSymbolTableRecord
100
AcDbRegAppTableRecord
  2
ACAD_DSTYLE_DIMJAG
 70
0
  0
APPID
  5
E0
330
9
100
AcDbSymbolTableRecord
100
AcDbRegAppTableRecord
  2
ACAD_DSTYLE_DIMTALN
 70
0
  0
APPID
  5
107
330
9
100
AcDbSymbolTableRecord
100
AcDbRegAppTableRecord
  2
ACAD_MLEADERVER
 70
0
  0
APPID
  5
1B5
330
9
100
AcDbSymbolTableRecord
100
AcDbRegAppTableRecord
  2
AcAecLayerStandard
 70
0
  0
APPID
  5
1BA
330
9
100
AcDbSymbolTableRecord
100
AcDbRegAppTableRecord
  2
ACAD_EXEMPT_FROM_CAD_STANDARDS
 70
0
  0
APPID
  5
237
330
9
100
AcDbSymbolTableRecord
100
AcDbRegAppTableRecord
  2
ACAD_DSTYLE_DIMBREAK
 70
0
  0
APPID
  5
28E
330
9
100
AcDbSymbolTableRecord
100
AcDbRegAppTableRecord
  2
ACAD_PSEXT
 70
0
  0
APPID
  5
4C2
330
9
100
AcDbSymbolTableRecord
100
AcDbRegAppTableRecord
  2
HATCHBACKGROUNDCOLOR
 70
0
  0
ENDTAB
  0
TABLE
  2
DIMSTYLE
  5
A
330
0
100
AcDbSymbolTable
 70
3
100
AcDbDimStyleTable
 71
3
340
242
340
27
340
E1
  0
DIMSTYLE
105
27
330
A
100
AcDbSymbolTableRecord
100
AcDbDimStyleTableRecord
  2
Standard
 70
0
 41
3.0
 42
2.0
 43
9.0
 44
5.0
140
3.0
141
2.0
147
2.0
340
11
1001
ACAD_DSTYLE_DIMJAG
1070
388
1040
38.0
1001
ACAD_DSTYLE_DIMBREAK
1070
391
1040
90.0
1001
ACAD_DSTYLE_DIMTALN
1070
392
1070
0
  0
DIMSTYLE
105
E1
330
A
100
AcDbSymbolTableRecord
100
AcDbDimStyleTableRecord
  2
Annotative
 70
0
 40
0.0
 41
3.0
 42
2.5
 43
10.0
 44
5.0
140
3.0
141
2.0
147
2.0
340
11
1001
AcadAnnotative
1000
AnnotativeData
1002
{
1070
1
1070
1
1002
}
1001
ACAD_DSTYLE_DIMJAG
1070
388
1040
38.0
1001
ACAD_DSTYLE_DIMBREAK
1070
391
1040
90.0
1001
ACAD_DSTYLE_DIMTALN
1070
392
1070
0
  0
DIMSTYLE
105
242
330
A
100
AcDbSymbolTableRecord
100
AcDbDimStyleTableRecord
  2
Civil-Metric
 70
0
 41
3.0
 42
1.5
 43
6.0
 44
3.0
 73
0
 74
0
 77
1
 78
3
 79
2
140
3.0
141
3.0
147
2.0
179
2
271
2
272
2
276
1
340
11
1001
ACAD_DSTYLE_DIMBREAK
1070
391
1040
3.0
1001
ACAD_DSTYLE_DIMJAG
1070
388
1040
38.0
1001
ACAD_DSTYLE_DIMTALN
1070
392
1070
0
  0
ENDTAB
  0
TABLE
  2
BLOCK_RECORD
  5
1
330
0
100
AcDbSymbolTable
 70
9
  0
BLOCK_RECORD
  5
1F
330
1
100
AcDbSymbolTableRecord
100
AcDbBlockTableRecord
  2
*Model_Space
340
507
 70
0
280
1
281
0
  0
BLOCK_RECORD
  5
58
330
1
100
AcDbSymbolTableRecord
100
AcDbBlockTableRecord
  2
*Paper_Space
340
508
 70
0
280
1
281
0
  0
BLOCK_RECORD
  5
238
330
1
100
AcDbSymbolTableRecord
100
AcDbBlockTableRecord
  2
_ArchTick
340
0
 70
0
280
1
281
0
  0
BLOCK_RECORD
  5
23C
330
1
100
AcDbSymbolTableRecord
100
AcDbBlockTableRecord
  2
_Open30
340
0
 70
0
280
1
281
0
  0
BLOCK_RECORD
  5
595
330
1
100
AcDbSymbolTableRecord
100
AcDbBlockTableRecord
  2
Wheel
340
0
  0
BLOCK_RECORD
  5
59B
330
1
100
AcDbSymbolTableRecord
100
AcDbBlockTableRecord
  2
PixelbotTop
340
0
  0
BLOCK_RECORD
  5
5CE
330
1
100
AcDbSymbolTableRecord
100
AcDbBlockTableRecord
  2
PixelbotBottom
340
0
  0
BLOCK_RECORD
  5
617
330
1
100
AcDbSymbolTableRecord
100
AcDbBlockTableRecord
  2
Tower
340
0
  0
BLOCK_RECORD
  5
69A
330
1
100
AcDbSymbolTableRecord
100
AcDbBlockTableRecord
  2
Washers
340
0
  0
ENDTAB
  0
ENDSEC
  0
SECTION
  2
BLOCKS
  0
BLOCK
  5
5A
330
58
100
AcDbEntity
 67
1
  8
0
100
AcDbBlockBegin
  2
*Paper_Space
 70
0
 10
0.0
 20
0.0
 30
0.0
  3
*Paper_Space
  1

  0
ENDBLK
  5
5B
330
58
100
AcDbEntity
 67
1
  8
0
100
AcDbBlockEnd
  0
BLOCK
  5
20
330
1F
100
AcDbEntity
  8
0
100
AcDbBlockBegin
  2
*Model_Space
 70
0
 10
0.0
 20
0.0
 30
0.0
  3
*Model_Space
  1

  0
ENDBLK
  5
21
330
1F
100
AcDbEntity
  8
0
100
AcDbBlockEnd
  0
BLOCK
  5
23A
330
238
100
AcDbEntity
  8
0
100
AcDbBlockBegin
  2
_ArchTick
 70
0
 10
0.0
 20
0.0
 30
0.0
  3
_ArchTick
  1

  0
LWPOLYLINE
  5
239
330
238
100
AcDbEntity
  8
0
  6
ByBlock
 62
0
100
AcDbPolyline
 90
2
 70
0
 43
0.15
 10
-0.5
 20
-0.5
 10
0.5
 20
0.5
  0
ENDBLK
  5
23B
330
238
100
AcDbEntity
  8
0
100
AcDbBlockEnd
  0
BLOCK
  5
240
330
23C
100
AcDbEntity
  8
0
100
AcDbBlockBegin
  2
_Open30
 70
0
 10
0.0
 20
0.0
 30
0.0
  3
_Open30
  1

  0
LINE
  5
23D
330
23C
100
AcDbEntity
  8
0
  6
ByBlock
 62
0
370
-2
100
AcDbLine
 10
-1.0
 20
0.26794919
 30
0.0
 11
0.0
 21
0.0
 31
0.0
  0
LINE
  5
23E
330
23C
100
AcDbEntity
  8
0
  6
ByBlock
 62
0
370
-2
100
AcDbLine
 10
0.0
 20
0.0
 30
0.0
 11
-1.0
 21
-0.26794919
 31
0.0
  0
LINE
  5
23F
330
23C
100
AcDbEntity
  8
0
  6
ByBlock
 62
0
370
-2
100
AcDbLine
 10
0.0
 20
0.0
 30
0.0
 11
-1.0
 21
0.0
 31
0.0
  0
ENDBLK
  5
241
330
23C
100
AcDbEntity
  8
0
100
AcDbBlockEnd
  0
BLOCK
  5
593
330
595
100
AcDbEntity
  8
0
100
AcDbBlockBegin
  2
Wheel
  3
Wheel
 70
0
 10
0.0
 20
0.0
  1

  0
CIRCLE
  5
596
330
595
100
AcDbEntity
  8
P4mm
 62
5
100
AcDbCircle
 10
0.0
 20
0.0
 40
35.0
  0
CIRCLE
  5
597
330
595
100
AcDbEntity
  8
P4mm
 62
5
100
AcDbCircle
 10
-5.0
 20
0.0
 40
1.5
  0
CIRCLE
  5
598
330
595
100
AcDbEntity
  8
P4mm
 62
5
100
AcDbCircle
 10
5.0
 20
0.0
 40
1.5
  0
ENDBLK
  5
594
330
595
100
AcDbEntity
  8
0
100
AcDbBlockEnd
  0
BLOCK
  5
599
330
59B
100
AcDbEntity
  8
0
100
AcDbBlockBegin
  2
PixelbotTop
  3
PixelbotTop
 70
0
 10
0.0
 20
0.0
  1

  0
LINE
  5
59C
330
59B
100
AcDbEntity
  8
P3mm
 62
1
100
AcDbLine
 10
-37.5
 20
-42.5
 11
-37.5
 21
42.5
  0
ARC
  5
59D
330
59B
100
AcDbEntity
  8
P3mm
 62
1
100
AcDbCircle
 10
0.0
 20
0.0
 40
56.67892024377317
100
AcDbArc
 50
48.57631956337886
 51
131.42368043662114
  0
LINE
  5
59E
330
59B
100
AcDbEntity
  8
P3mm
 62
1
100
AcDbLine
 10
37.5
 20
42.5
 11
37.5
 21
-42.5
  0
ARC
  5
59F
330
59B
100
AcDbEntity
  8
P3mm
 62
1
100
AcDbCircle
 10
0.0
 20
0.0
 40
56.67892024377317
100
AcDbArc
 50
228.57631956337886
 51
311.4236804366211
  0
CIRCLE
  5
5A0
330
59B
100
AcDbEntity
  8
P3mm
 62
1
100
AcDbCircle
 10
-5.0
 20
52.67892024377317
 40
1.6
  0
CIRCLE
  5
5A1
330
59B
100
AcDbEntity
  8
P3mm
 62
1
100
AcDbCircle
 10
5.0
 20
52.67892024377317
 40
1.6
  0
CIRCLE
  5
5A2
330
59B
100
AcDbEntity
  8
P3mm
 62
1
100
AcDbCircle
 10
-5.0
 20
-52.67892024377317
 40
1.6
  0
CIRCLE
  5
5A3
330
59B
100
AcDbEntity
  8
P3mm
 62
1
100
AcDbCircle
 10
5.0
 20
-52.67892024377317
 40
1.6
  0
CIRCLE
  5
5A4
330
59B
100
AcDbEntity
  8
P3mm
 62
1
100
AcDbCircle
 10
-32.5
 20
-20.0
 40
1.6
  0
CIRCLE
  5
5A5
330
59B
100
AcDbEntity
  8
P3mm
 62
1
100
AcDbCircle
 10
-32.5
 20
20.0
 40
1.6
  0
CIRCLE
  5
5A6
330
59B
100
AcDbEntity
  8
P3mm
 62
1
100
AcDbCircle
 10
32.5
 20
-20.0
 40
1.6
  0
CIRCLE
  5
5A7
330
59B
100
AcDbEntity
  8
P3mm
 62
1
100
AcDbCircle
 10
32.5
 20
20.0
 40
1.6
  0
LINE
  5
5A8
330
59B
100
AcDbEntity
  8
P3mm
 62
1
100
AcDbLine
 10
-35.05
 20
-12.450000000000001
 11
-35.05
 21
12.450000000000001
  0
ARC
  5
5A9
330
59B
100
AcDbEntity
  8
P3mm
 62
1
100
AcDbCircle
 10
-34.949999999999996
 20
12.450000000000001
 40
0.1
100
AcDbArc
 50
90.0
 51
180.0
  0
LINE
  5
5AA
330
59B
100
AcDbEntity
  8
P3mm
 62
1
100
AcDbLine
 10
-34.949999999999996
 20
12.55
 11
-30.049999999999997
 21
12.55
  0
ARC
  5
5AB
330
59B
100
AcDbEntity
  8
P3mm
 62
1
100
AcDbCircle
 10
-30.049999999999997
 20
12.450000000000001
 40
0.1
100
AcDbArc
 50
0.0
 51
90.0
  0
LINE
  5
5AC
330
59B
100
AcDbEntity
  8
P3mm
 62
1
100
AcDbLine
 10
-29.949999999999996
 20
12.450000000000001
 11
-29.949999999999996
 21
-12.450000000000001
  0
ARC
  5
5AD
330
59B
100
AcDbEntity
  8
P3mm
 62
1
100
AcDbCircle
 10
-30.049999999999997
 20
-12.450000000000001
 40
0.1
100
AcDbArc
 50
270.0
 51
0.0
  0
LINE
  5
5AE
330
59B
100
AcDbEntity
  8
P3mm
 62
1
100
AcDbLine
 10
-30.049999999999997
 20
-12.55
 11
-34.949999999999996
 21
-12.55
  0
ARC
  5
5AF
330
59B
100
AcDbEntity
  8
P3mm
 62
1
100
AcDbCircle
 10
-34.949999999999996
 20
-12.450000000000001
 40
0.1
100
AcDbArc
 50
180.0
 51
270.0
  0
LINE
  5
5B0
330
59B
100
AcDbEntity
  8
P3mm
 62
1
100
AcDbLine
 10
29.95
 20
-12.450000000000001
 11
29.95
 21
12.450000000000001
  0
ARC
  5
5B1
330
59B
100
AcDbEntity
  8
P3mm
 62
1
100
AcDbCircle
 10
30.05
 20
12.450000000000001
 40
0.1
100
AcDbArc
 50
90.0
 51
180.0
  0
LINE
  5
5B2
330
59B
100
AcDbEntity
  8
P3mm
 62
1
100
AcDbLine
 10
30.05
 20
12.55
 11
34.95
 21
12.55
  0
ARC
  5
5B3
330
59B
100
AcDbEntity
  8
P3mm
 62
1
100
AcDbCircle
 10
34.95
 20
12.450000000000001
 40
0.1
100
AcDbArc
 50
0.0
 51
90.0
  0
LINE
  5
5B4
330
59B
100
AcDbEntity
  8
P3mm
 62
1
100
AcDbLine
 10
35.050000000000004
 20
12.450000000000001
 11
35.050000000000004
 21
-12.450000000000001
  0
ARC
  5
5B5
330
59B
100
AcDbEntity
  8
P3mm
 62
1
100
AcDbCircle
 10
34.95
 20
-12.450000000000001
 40
0.1
100
AcDbArc
 50
270.0
 51
0.0
  0
LINE
  5
5B6
330
59B
100
AcDbEntity
  8
P3mm
 62
1
100
AcDbLine
 10
34.95
 20
-12.55
 11
30.050000000000004
 21
-12.55
  0
ARC
  5
5B7
330
59B
100
AcDbEntity
  8
P3mm
 62
1
100
AcDbCircle
 10
30.050000000000004
 20
-12.450000000000001
 40
0.1
100
AcDbArc
 50
180.0
 51
270.0
  0
CIRCLE
  5
5B8
330
59B
100
AcDbEntity
  8
P3mm
 62
1
100
AcDbCircle
 10
-23.9
 20
-24.7
 40
1.6
  0
CIRCLE
  5
5B9
330
59B
100
AcDbEntity
  8
P3mm
 62
1
100
AcDbCircle
 10
-8.399999999999999
 20
26.099999999999994
 40
1.6
  0
CIRCLE
  5
5BA
330
59B
100
AcDbEntity
  8
P3mm
 62
1
100
AcDbCircle
 10
19.5
 20
26.099999999999994
 40
1.6
  0
CIRCLE
  5
5BB
330
59B
100
AcDbEntity
  8
P3mm
 62
1
100
AcDbCircle
 10
24.300000000000004
 20
-26.0
 40
1.6
  0
LINE
  5
5BC
330
59B
100
AcDbEntity
  8
P3mm
 62
1
100
AcDbLine
 10
-9.5
 20
-44.5
 11
-9.5
 21
-40.5
  0
ARC
  5
5BD
330
59B
100
AcDbEntity
  8
P3mm
 62
1
100
AcDbCircle
 10
-9.0
 20
-40.5
 40
0.5
100
AcDbArc
 50
90.0
 51
180.0
  0
LINE
  5
5BE
330
59B
100
AcDbEntity
  8
P3mm
 62
1
100
AcDbLine
 10
-9.0
 20
-40.0
 11
9.0
 21
-40.0
  0
ARC
  5
5BF
330
59B
100
AcDbEntity
  8
P3mm
 62
1
100
AcDbCircle
 10
9.0
 20
-40.5
 40
0.5
100
AcDbArc
 50
0.0
 51
90.0
  0
LINE
  5
5C0
330
59B
100
AcDbEntity
  8
P3mm
 62
1
100
AcDbLine
 10
9.5
 20
-40.5
 11
9.5
 21
-44.5
  0
ARC
  5
5C1
330
59B
100
AcDbEntity
  8
P3mm
 62
1
100
AcDbCircle
 10
9.0
 20
-44.5
 40
0.5
100
AcDbArc
 50
270.0
 51
0.0
  0
LINE
  5
5C2
330
59B
100
AcDbEntity
  8
P3mm
 62
1
100
AcDbLine
 10
9.0
 20
-45.0
 11
-9.0
 21
-45.0
  0
ARC
  5
5C3
330
59B
100
AcDbEntity
  8
P3mm
 62
1
100
AcDbCircle
 10
-9.0
 20
-44.5
 40
0.5
100
AcDbArc
 50
180.0
 51
270.0
  0
LINE
  5
5C4
330
59B
100
AcDbEntity
  8
P3mm
 62
1
100
AcDbLine
 10
-6.75
 20
35.5
 11
-6.75
 21
44.0
  0
ARC
  5
5C5
330
59B
100
AcDbEntity
  8
P3mm
 62
1
100
AcDbCircle
 10
-6.25
 20
44.0
 40
0.5
100
AcDbArc
 50
90.0
 51
180.0
  0
LINE
  5
5C6
330
59B
100
AcDbEntity
  8
P3mm
 62
1
100
AcDbLine
 10
-6.25
 20
44.5
 11
6.25
 21
44.5
  0
ARC
  5
5C7
330
59B
100
AcDbEntity
  8
P3mm
 62
1
100
AcDbCircle
 10
6.25
 20
44.0
 40
0.5
100
AcDbArc
 50
0.0
 51
90.0
  0
LINE
  5
5C8
330
59B
100
AcDbEntity
  8
P3mm
 62
1
100
AcDbLine
 10
6.75
 20
44.0
 11
6.75
 21
35.5
  0
ARC
  5
5C9
330
59B
100
AcDbEntity
  8
P3mm
 62
1
100
AcDbCircle
 10
6.25
 20
35.5
 40
0.5
100
AcDbArc
 50
270.0
 51
0.0
  0
LINE
  5
5CA
330
59B
100
AcDbEntity
  8
P3mm
 62
1
100
AcDbLine
 10
6.25
 20
35.0
 11
-6.25
 21
35.0
  0
ARC
  5
5CB
330
59B
100
AcDbEntity
  8
P3mm
 62
1
100
AcDbCircle
 10
-6.25
 20
35.5
 40
0.5
100
AcDbArc
 50
180.0
 51
270.0
  0
ENDBLK
  5
59A
330
59B
100
AcDbEntity
  8
0
100
AcDbBlockEnd
  0
BLOCK
  5
5CC
330
5CE
100
AcDbEntity
  8
0
100
AcDbBlockBegin
  2
PixelbotBottom
  3
PixelbotBottom
 70
0
 10
0.0
 20
0.0
  1

  0
LINE
  5
5CF
330
5CE
100
AcDbEntity
  8
P3mm
 62
1
100
AcDbLine
 10
-37.5
 20
-42.5
 11
-37.5
 21
42.5
  0
ARC
  5
5D0
330
5CE
100
AcDbEntity
  8
P3mm
 62
1
100
AcDbCircle
 10
0.0
 20
0.0
 40
56.67892024377317
100
AcDbArc
 50
48.57631956337886
 51
131.42368043662114
  0
LINE
  5
5D1
330
5CE
100
AcDbEntity
  8
P3mm
 62
1
100
AcDbLine
 10
37.5
 20
42.5
 11
37.5
 21
-42.5
  0
ARC
  5
5D2
330
5CE
100
AcDbEntity
  8
P3mm
 62
1
100
AcDbCircle
 10
0.0
 20
0.0
 40
56.67892024377317
100
AcDbArc
 50
228.57631956337886
 51
311.4236804366211
  0
CIRCLE
  5
5D3
330
5CE
100
AcDbEntity
  8
P3mm
 62
1
100
AcDbCircle
 10
-5.0
 20
52.67892024377317
 40
1.6
  0
CIRCLE
  5
5D4
330
5CE
100
AcDbEntity
  8
P3mm
 62
1
100
AcDbCircle
 10
5.0
 20
52.67892024377317
 40
1.6
  0
CIRCLE
  5
5D5
330
5CE
100
AcDbEntity
  8
P3mm
 62
1
100
AcDbCircle
 10
-5.0
 20
-52.67892024377317
 40
1.6
  0
CIRCLE
  5
5D6
330
5CE
100
AcDbEntity
  8
P3mm
 62
1
100
AcDbCircle
 10
5.0
 20
-52.67892024377317
 40
1.6
  0
CIRCLE
  5
5D7
330
5CE
100
AcDbEntity
  8
P3mm
 62
1
100
AcDbCircle
 10
-32.5
 20
-20.0
 40
1.6
  0
CIRCLE
  5
5D8
330
5CE
100
AcDbEntity
  8
P3mm
 62
1
100
AcDbCircle
 10
-32.5
 20
20.0
 40
1.6
  0
CIRCLE
  5
5D9
330
5CE
100
AcDbEntity
  8
P3mm
 62
1
100
AcDbCircle
 10
32.5
 20
-20.0
 40
1.6
  0
CIRCLE
  5
5DA
330
5CE
100
AcDbEntity
  8
P3mm
 62
1
100
AcDbCircle
 10
32.5
 20
20.0
 40
1.6
  0
LINE
  5
5DB
330
5CE
100
AcDbEntity
  8
P3mm
 62
1
100
AcDbLine
 10
-35.05
 20
-12.450000000000001
 11
-35.05
 21
12.450000000000001
  0
ARC
  5
5DC
330
5CE
100
AcDbEntity
  8
P3mm
 62
1
100
AcDbCircle
 10
-34.949999999999996
 20
12.450000000000001
 40
0.1
100
AcDbArc
 50
90.0
 51
180.0
  0
LINE
  5
5DD
330
5CE
100
AcDbEntity
  8
P3mm
 62
1
100
AcDbLine
 10
-34.949999999999996
 20
12.55
 11
-30.049999999999997
 21
12.55
  0
ARC
  5
5DE
330
5CE
100
AcDbEntity
  8
P3mm
 62
1
100
AcDbCircle
 10
-30.049999999999997
 20
12.450000000000001
 40
0.1
100
AcDbArc
 50
0.0
 51
90.0
  0
LINE
  5
5DF
330
5CE
100
AcDbEntity
  8
P3mm
 62
1
100
AcDbLine
 10
-29.949999999999996
 20
12.450000000000001
 11
-29.949999999999996
 21
-12.450000000000001
  0
ARC
  5
5E0
330
5CE
100
AcDbEntity
  8
P3mm
 62
1
100
AcDbCircle
 10
-30.049999999999997
 20
-12.450000000000001
 40
0.1
100
AcDbArc
 50
270.0
 51
0.0
  0
LINE
  5
5E1
330
5CE
100
AcDbEntity
  8
P3mm
 62
1
100
AcDbLine
 10
-30.049999999999997
 20
-12.55
 11
-34.949999999999996
 21
-12.55
  0
ARC
  5
5E2
330
5CE
100
AcDbEntity
  8
P3mm
 62
1
100
AcDbCircle
 10
-34.949999999999996
 20
-12.450000000000001
 40
0.1
100
AcDbArc
 50
180.0
 51
270.0
  0
LINE
  5
5E3
330
5CE
100
AcDbEntity
  8
P3mm
 62
1
100
AcDbLine
 10
29.95
 20
-12.450000000000001
 11
29.95
 21
12.450000000000001
  0
ARC
  5
5E4
330
5CE
100
AcDbEntity
  8
P3mm
 62
1
100
AcDbCircle
 10
30.05
 20
12.450000000000001
 40
0.1
100
AcDbArc
 50
90.0
 51
180.0
  0
LINE
  5
5E5
330
5CE
100
AcDbEntity
  8
P3mm
 62
1
100
AcDbLine
 10
30.05
 20
12.55
 11
34.95
 21
12.55
  0
ARC
  5
5E6
330
5CE
100
AcDbEntity
  8
P3mm
 62
1
100
AcDbCircle
 10
34.95
 20
12.450000000000001
 40
0.1
100
AcDbArc
 50
0.0
 51
90.0
  0
LINE
  5
5E7
330
5CE
100
AcDbEntity
  8
P3mm
 62
1
100
AcDbLine
 10
35.050000000000004
 20
12.450000000000001
 11
35.050000000000004
 21
-12.450000000000001
  0
ARC
  5
5E8
330
5CE
100
AcDbEntity
  8
P3mm
 62
1
100
AcDbCircle
 10
34.95
 20
-12.450000000000001
 40
0.1
100
AcDbArc
 50
270.0
 51
0.0
  0
LINE
  5
5E9
330
5CE
100
AcDbEntity
  8
P3mm
 62
1
100
AcDbLine
 10
34.95
 20
-12.55
 11
30.050000000000004
 21
-12.55
  0
ARC
  5
5EA
330
5CE
100
AcDbEntity
  8
P3mm
 62
1
100
AcDbCircle
 10
30.050000000000004
 20
-12.450000000000001
 40
0.1
100
AcDbArc
 50
180.0
 51
270.0
  0
CIRCLE
  5
5EB
330
5CE
100
AcDbEntity
  8
P3mm
 62
1
100
AcDbCircle
 10
-13.25
 20
-42.5
 40
1.6
  0
CIRCLE
  5
5EC
330
5CE
100
AcDbEntity
  8
P3mm
 62
1
100
AcDbCircle
 10
13.25
 20
-42.5
 40
1.6
  0
CIRCLE
  5
5ED
330
5CE
100
AcDbEntity
  8
P3mm
 62
1
100
AcDbCircle
 10
13.25
 20
-12.5
 40
1.6
  0
CIRCLE
  5
5EE
330
5CE
100
AcDbEntity
  8
P3mm
 62
1
100
AcDbCircle
 10
-13.25
 20
-12.5
 40
1.6
  0
CIRCLE
  5
5EF
330
5CE
100
AcDbEntity
  8
P3mm
 62
1
100
AcDbCircle
 10
-13.25
 20
12.5
 40
1.6
  0
CIRCLE
  5
5F0
330
5CE
100
AcDbEntity
  8
P3mm
 62
1
100
AcDbCircle
 10
13.25
 20
12.5
 40
1.6
  0
CIRCLE
  5
5F1
330
5CE
100
AcDbEntity
  8
P3mm
 62
1
100
AcDbCircle
 10
13.25
 20
42.5
 40
1.6
  0
CIRCLE
  5
5F2
330
5CE
100
AcDbEntity
  8
P3mm
 62
1
100
AcDbCircle
 10
-13.25
 20
42.5
 40
1.6
  0
LINE
  5
5F3
330
5CE
100
AcDbEntity
  8
P3mm
 62
1
100
AcDbLine
 10
-1.6
 20
-30.9
 11
-1.6
 21
-29.099999999999998
  0
ARC
  5
5F4
330
5CE
100
AcDbEntity
  8
P3mm
 62
1
100
AcDbCircle
 10
0.0
 20
-29.099999999999998
 40
1.6
100
AcDbArc
 50
90.0
 51
180.0
  0
LINE
  5
5F5
330
5CE
100
AcDbEntity
  8
P3mm
 62
1
100
AcDbLine
 10
0.0
 20
-27.499999999999996
 11
0.0
 21
-27.499999999999996
  0
ARC
  5
5F6
330
5CE
100
AcDbEntity
  8
P3mm
 62
1
100
AcDbCircle
 10
0.0
 20
-29.099999999999998
 40
1.6
100
AcDbArc
 50
0.0
 51
90.0
  0
LINE
  5
5F7
330
5CE
100
AcDbEntity
  8
P3mm
 62
1
100
AcDbLine
 10
1.6
 20
-29.099999999999998
 11
1.6
 21
-30.9
  0
ARC
  5
5F8
330
5CE
100
AcDbEntity
  8
P3mm
 62
1
100
AcDbCircle
 10
0.0
 20
-30.9
 40
1.6
100
AcDbArc
 50
270.0
 51
0.0
  0
LINE
  5
5F9
330
5CE
100
AcDbEntity
  8
P3mm
 62
1
100
AcDbLine
 10
0.0
 20
-32.5
 11
0.0
 21
-32.5
  0
ARC
  5
5FA
330
5CE
100
AcDbEntity
  8
P3mm
 62
1
100
AcDbCircle
 10
0.0
 20
-30.9
 40
1.6
100
AcDbArc
 50
180.0
 51
270.0
  0
LINE
  5
5FB
330
5CE
100
AcDbEntity
  8
P3mm
 62
1
100
AcDbLine
 10
-1.6
 20
29.1
 11
-1.6
 21
30.900000000000002
  0
ARC
  5
5FC
330
5CE
100
AcDbEntity
  8
P3mm
 62
1
100
AcDbCircle
 10
0.0
 20
30.900000000000002
 40
1.6
100
AcDbArc
 50
90.0
 51
180.0
  0
LINE
  5
5FD
330
5CE
100
AcDbEntity
  8
P3mm
 62
1
100
AcDbLine
 10
0.0
 20
32.5
 11
0.0
 21
32.5
  0
ARC
  5
5FE
330
5CE
100
AcDbEntity
  8
P3mm
 62
1
100
AcDbCircle
 10
0.0
 20
30.9
 40
1.6
100
AcDbArc
 50
0.0
 51
90.0
  0
LINE
  5
5FF
330
5CE
100
AcDbEntity
  8
P3mm
 62
1
100
AcDbLine
 10
1.6
 20
30.9
 11
1.6
 21
29.099999999999998
  0
ARC
  5
600
330
5CE
100
AcDbEntity
  8
P3mm
 62
1
100
AcDbCircle
 10
0.0
 20
29.099999999999998
 40
1.6
100
AcDbArc
 50
270.0
 51
0.0
  0
LINE
  5
601
330
5CE
100
AcDbEntity
  8
P3mm
 62
1
100
AcDbLine
 10
0.0
 20
27.499999999999996
 11
0.0
 21
27.499999999999996
  0
ARC
  5
602
330
5CE
100
AcDbEntity
  8
P3mm
 62
1
100
AcDbCircle
 10
0.0
 20
29.099999999999998
 40
1.6
100
AcDbArc
 50
180.0
 51
270.0
  0
LINE
  5
603
330
5CE
100
AcDbEntity
  8
P3mm
 62
1
100
AcDbLine
 10
-1.6
 20
-23.4
 11
-1.6
 21
-21.599999999999998
  0
ARC
  5
604
330
5CE
100
AcDbEntity
  8
P3mm
 62
1
100
AcDbCircle
 10
0.0
 20
-21.599999999999998
 40
1.6
100
AcDbArc
 50
90.0
 51
180.0
  0
LINE
  5
605
330
5CE
100
AcDbEntity
  8
P3mm
 62
1
100
AcDbLine
 10
0.0
 20
-19.999999999999996
 11
0.0
 21
-19.999999999999996
  0
ARC
  5
606
330
5CE
100
AcDbEntity
  8
P3mm
 62
1
100
AcDbCircle
 10
0.0
 20
-21.599999999999998
 40
1.6
100
AcDbArc
 50
0.0
 51
90.0
  0
LINE
  5
607
330
5CE
100
AcDbEntity
  8
P3mm
 62
1
100
AcDbLine
 10
1.6
 20
-21.599999999999998
 11
1.6
 21
-23.4
  0
ARC
  5
608
330
5CE
100
AcDbEntity
  8
P3mm
 62
1
100
AcDbCircle
 10
0.0
 20
-23.4
 40
1.6
100
AcDbArc
 50
270.0
 51
0.0
  0
LINE
  5
609
330
5CE
100
AcDbEntity
  8
P3mm
 62
1
100
AcDbLine
 10
0.0
 20
-25.0
 11
0.0
 21
-25.0
  0
ARC
  5
60A
330
5CE
100
AcDbEntity
  8
P3mm
 62
1
100
AcDbCircle
 10
0.0
 20
-23.4
 40
1.6
100
AcDbArc
 50
180.0
 51
270.0
  0
LINE
  5
60B
330
5CE
100
AcDbEntity
  8
P3mm
 62
1
100
AcDbLine
 10
-1.6
 20
21.6
 11
-1.6
 21
23.400000000000002
  0
ARC
  5
60C
330
5CE
100
AcDbEntity
  8
P3mm
 62
1
100
AcDbCircle
 10
0.0
 20
23.400000000000002
 40
1.6
100
AcDbArc
 50
90.0
 51
180.0
  0
LINE
  5
60D
330
5CE
100
AcDbEntity
  8
P3mm
 62
1
100
AcDbLine
 10
0.0
 20
25.000000000000004
 11
0.0
 21
25.000000000000004
  0
ARC
  5
60E
330
5CE
100
AcDbEntity
  8
P3mm
 62
1
100
AcDbCircle
 10
0.0
 20
23.400000000000002
 40
1.6
100
AcDbArc
 50
0.0
 51
90.0
  0
LINE
  5
60F
330
5CE
100
AcDbEntity
  8
P3mm
 62
1
100
AcDbLine
 10
1.6
 20
23.400000000000002
 11
1.6
 21
21.6
  0
ARC
  5
610
330
5CE
100
AcDbEntity
  8
P3mm
 62
1
100
AcDbCircle
 10
0.0
 20
21.6
 40
1.6
100
AcDbArc
 50
270.0
 51
0.0
  0
LINE
  5
611
330
5CE
100
AcDbEntity
  8
P3mm
 62
1
100
AcDbLine
 10
0.0
 20
20.0
 11
0.0
 21
20.0
  0
ARC
  5
612
330
5CE
100
AcDbEntity
  8
P3mm
 62
1
100
AcDbCircle
 10
0.0
 20
21.6
 40
1.6
100
AcDbArc
 50
180.0
 51
270.0
  0
CIRCLE
  5
613
330
5CE
100
AcDbEntity
  8
P3mm
 62
1
100
AcDbCircle
 10
0.0
 20
-47.5
 40
1.6
  0
CIRCLE
  5
614
330
5CE
100
AcDbEntity
  8
P3mm
 62
1
100
AcDbCircle
 10
0.0
 20
47.5
 40
1.6
  0
ENDBLK
  5
5CD
330
5CE
100
AcDbEntity
  8
0
100
AcDbBlockEnd
  0
BLOCK
  5
615
330
617
100
AcDbEntity
  8
0
100
AcDbBlockBegin
  2
Tower
  3
Tower
 70
0
 10
0.0
 20
0.0
  1

  0
ARC
  5
618
330
617
100
AcDbEntity
  8
P5mm
 62
3
100
AcDbCircle
 10
-27.4
 20
-19.9
 40
0.1
100
AcDbArc
 50
180.0
 51
270.0
  0
LINE
  5
619
330
617
100
AcDbEntity
  8
P5mm
 62
3
100
AcDbLine
 10
-27.5
 20
-19.9
 11
-27.5
 21
19.9
  0
ARC
  5
61A
330
617
100
AcDbEntity
  8
P5mm
 62
3
100
AcDbCircle
 10
-27.4
 20
19.900000000000002
 40
0.1
100
AcDbArc
 50
90.0
 51
180.0
  0
LINE
  5
61B
330
617
100
AcDbEntity
  8
P5mm
 62
3
100
AcDbLine
 10
-27.4
 20
20.000000000000004
 11
-21.549999999999997
 21
20.000000000000004
  0
ARC
  5
61C
330
617
100
AcDbEntity
  8
P5mm
 62
3
100
AcDbCircle
 10
-21.549999999999997
 20
19.900000000000002
 40
0.1
100
AcDbArc
 50
0.0
 51
90.0
  0
LINE
  5
61D
330
617
100
AcDbEntity
  8
P5mm
 62
3
100
AcDbLine
 10
-21.449999999999996
 20
19.900000000000002
 11
-21.449999999999996
 21
17.1
  0
ARC
  5
61E
330
617
100
AcDbEntity
  8
P5mm
 62
3
100
AcDbCircle
 10
-21.549999999999997
 20
17.1
 40
0.1
100
AcDbArc
 50
270.0
 51
0.0
  0
LINE
  5
61F
330
617
100
AcDbEntity
  8
P5mm
 62
3
100
AcDbLine
 10
-21.549999999999997
 20
17.0
 11
-22.549999999999997
 21
17.0
  0
ARC
  5
620
330
617
100
AcDbEntity
  8
P5mm
 62
3
100
AcDbCircle
 10
-22.549999999999997
 20
16.9
 40
0.1
100
AcDbArc
 50
90.0
 51
180.0
  0
LINE
  5
621
330
617
100
AcDbEntity
  8
P5mm
 62
3
100
AcDbLine
 10
-22.65
 20
16.9
 11
-22.65
 21
14.849999999999998
  0
ARC
  5
622
330
617
100
AcDbEntity
  8
P5mm
 62
3
100
AcDbCircle
 10
-22.549999999999997
 20
14.849999999999998
 40
0.1
100
AcDbArc
 50
180.0
 51
270.0
  0
LINE
  5
623
330
617
100
AcDbEntity
  8
P5mm
 62
3
100
AcDbLine
 10
-22.549999999999997
 20
14.749999999999998
 11
-21.549999999999997
 21
14.749999999999998
  0
ARC
  5
624
330
617
100
AcDbEntity
  8
P5mm
 62
3
100
AcDbCircle
 10
-21.549999999999997
 20
14.649999999999999
 40
0.1
100
AcDbArc
 50
0.0
 51
90.0
  0
LINE
  5
625
330
617
100
AcDbEntity
  8
P5mm
 62
3
100
AcDbLine
 10
-21.449999999999996
 20
14.649999999999999
 11
-21.449999999999996
 21
8.849999999999998
  0
ARC
  5
626
330
617
100
AcDbEntity
  8
P5mm
 62
3
100
AcDbCircle
 10
-21.349999999999994
 20
8.849999999999998
 40
0.1
100
AcDbArc
 50
180.0
 51
270.0
  0
LINE
  5
627
330
617
100
AcDbEntity
  8
P5mm
 62
3
100
AcDbLine
 10
-21.349999999999994
 20
8.749999999999998
 11
-18.649999999999995
 21
8.749999999999998
  0
ARC
  5
628
330
617
100
AcDbEntity
  8
P5mm
 62
3
100
AcDbCircle
 10
-18.649999999999995
 20
8.849999999999998
 40
0.1
100
AcDbArc
 50
270.0
 51
0.0
  0
LINE
  5
629
330
617
100
AcDbEntity
  8
P5mm
 62
3
100
AcDbLine
 10
-18.549999999999994
 20
8.849999999999998
 11
-18.549999999999994
 21
14.649999999999999
  0
ARC
  5
62A
330
617
100
AcDbEntity
  8
P5mm
 62
3
100
AcDbCircle
 10
-18.449999999999992
 20
14.649999999999999
 40
0.1
100
AcDbArc
 50
90.0
 51
180.0
  0
LINE
  5
62B
330
617
100
AcDbEntity
  8
P5mm
 62
3
100
AcDbLine
 10
-18.449999999999992
 20
14.749999999999998
 11
-17.449999999999992
 21
14.749999999999998
  0
ARC
  5
62C
330
617
100
AcDbEntity
  8
P5mm
 62
3
100
AcDbCircle
 10
-17.449999999999992
 20
14.849999999999998
 40
0.1
100
AcDbArc
 50
270.0
 51
0.0
  0
LINE
  5
62D
330
617
100
AcDbEntity
  8
P5mm
 62
3
100
AcDbLine
 10
-17.34999999999999
 20
14.849999999999998
 11
-17.34999999999999
 21
16.9
  0
ARC
  5
62E
330
617
100
AcDbEntity
  8
P5mm
 62
3
100
AcDbCircle
 10
-17.449999999999992
 20
16.9
 40
0.1
100
AcDbArc
 50
0.0
 51
90.0
  0
LINE
  5
62F
330
617
100
AcDbEntity
  8
P5mm
 62
3
100
AcDbLine
 10
-17.449999999999992
 20
17.0
 11
-18.449999999999992
 21
17.0
  0
ARC
  5
630
330
617
100
AcDbEntity
  8
P5mm
 62
3
100
AcDbCircle
 10
-18.449999999999992
 20
17.1
 40
0.1
100
AcDbArc
 50
180.0
 51
270.0
  0
LINE
  5
631
330
617
100
AcDbEntity
  8
P5mm
 62
3
100
AcDbLine
 10
-18.549999999999994
 20
17.1
 11
-18.549999999999994
 21
19.900000000000002
  0
ARC
  5
632
330
617
100
AcDbEntity
  8
P5mm
 62
3
100
AcDbCircle
 10
-18.449999999999992
 20
19.900000000000002
 40
0.1
100
AcDbArc
 50
90.0
 51
180.0
  0
LINE
  5
633
330
617
100
AcDbEntity
  8
P5mm
 62
3
100
AcDbLine
 10
-18.449999999999996
 20
20.000000000000004
 11
-12.6
 21
20.000000000000004
  0
ARC
  5
634
330
617
100
AcDbEntity
  8
P5mm
 62
3
100
AcDbCircle
 10
-12.6
 20
20.100000000000005
 40
0.1
100
AcDbArc
 50
270.0
 51
0.0
  0
LINE
  5
635
330
617
100
AcDbEntity
  8
P5mm
 62
3
100
AcDbLine
 10
-12.5
 20
20.100000000000005
 11
-12.5
 21
22.900000000000006
  0
ARC
  5
636
330
617
100
AcDbEntity
  8
P5mm
 62
3
100
AcDbCircle
 10
-12.4
 20
22.900000000000006
 40
0.1
100
AcDbArc
 50
90.0
 51
180.0
  0
LINE
  5
637
330
617
100
AcDbEntity
  8
P5mm
 62
3
100
AcDbLine
 10
-12.4
 20
23.000000000000007
 11
12.4
 21
23.000000000000007
  0
ARC
  5
638
330
617
100
AcDbEntity
  8
P5mm
 62
3
100
AcDbCircle
 10
12.4
 20
22.900000000000006
 40
0.1
100
AcDbArc
 50
0.0
 51
90.0
  0
LINE
  5
639
330
617
100
AcDbEntity
  8
P5mm
 62
3
100
AcDbLine
 10
12.5
 20
22.900000000000006
 11
12.5
 21
20.100000000000005
  0
ARC
  5
63A
330
617
100
AcDbEntity
  8
P5mm
 62
3
100
AcDbCircle
 10
12.6
 20
20.100000000000005
 40
0.1
100
AcDbArc
 50
180.0
 51
270.0
  0
LINE
  5
63B
330
617
100
AcDbEntity
  8
P5mm
 62
3
100
AcDbLine
 10
12.6
 20
20.000000000000004
 11
18.449999999999996
 21
20.000000000000004
  0
ARC
  5
63C
330
617
100
AcDbEntity
  8
P5mm
 62
3
100
AcDbCircle
 10
18.449999999999996
 20
19.900000000000002
 40
0.1
100
AcDbArc
 50
0.0
 51
90.0
  0
LINE
  5
63D
330
617
100
AcDbEntity
  8
P5mm
 62
3
100
AcDbLine
 10
18.549999999999997
 20
19.900000000000002
 11
18.549999999999997
 21
17.1
  0
ARC
  5
63E
330
617
100
AcDbEntity
  8
P5mm
 62
3
100
AcDbCircle
 10
18.449999999999996
 20
17.1
 40
0.1
100
AcDbArc
 50
270.0
 51
0.0
  0
LINE
  5
63F
330
617
100
AcDbEntity
  8
P5mm
 62
3
100
AcDbLine
 10
18.449999999999996
 20
17.0
 11
17.449999999999996
 21
17.0
  0
ARC
  5
640
330
617
100
AcDbEntity
  8
P5mm
 62
3
100
AcDbCircle
 10
17.449999999999996
 20
16.9
 40
0.1
100
AcDbArc
 50
90.0
 51
180.0
  0
LINE
  5
641
330
617
100
AcDbEntity
  8
P5mm
 62
3
100
AcDbLine
 10
17.349999999999994
 20
16.9
 11
17.349999999999994
 21
14.849999999999998
  0
ARC
  5
642
330
617
100
AcDbEntity
  8
P5mm
 62
3
100
AcDbCircle
 10
17.449999999999996
 20
14.849999999999998
 40
0.1
100
AcDbArc
 50
180.0
 51
270.0
  0
LINE
  5
643
330
617
100
AcDbEntity
  8
P5mm
 62
3
100
AcDbLine
 10
17.449999999999996
 20
14.749999999999998
 11
18.449999999999996
 21
14.749999999999998
  0
ARC
  5
644
330
617
100
AcDbEntity
  8
P5mm
 62
3
100
AcDbCircle
 10
18.449999999999996
 20
14.649999999999999
 40
0.1
100
AcDbArc
 50
0.0
 51
90.0
  0
LINE
  5
645
330
617
100
AcDbEntity
  8
P5mm
 62
3
100
AcDbLine
 10
18.549999999999997
 20
14.649999999999999
 11
18.549999999999997
 21
8.849999999999998
  0
ARC
  5
646
330
617
100
AcDbEntity
  8
P5mm
 62
3
100
AcDbCircle
 10
18.65
 20
8.849999999999998
 40
0.1
100
AcDbArc
 50
180.0
 51
270.0
  0
LINE
  5
647
330
617
100
AcDbEntity
  8
P5mm
 62
3
100
AcDbLine
 10
18.65
 20
8.749999999999998
 11
21.349999999999998
 21
8.749999999999998
  0
ARC
  5
648
330
617
100
AcDbEntity
  8
P5mm
 62
3
100
AcDbCircle
 10
21.349999999999998
 20
8.849999999999998
 40
0.1
100
AcDbArc
 50
270.0
 51
0.0
  0
LINE
  5
649
330
617
100
AcDbEntity
  8
P5mm
 62
3
100
AcDbLine
 10
21.45
 20
8.849999999999998
 11
21.45
 21
14.649999999999999
  0
ARC
  5
64A
330
617
100
AcDbEntity
  8
P5mm
 62
3
100
AcDbCircle
 10
21.55
 20
14.649999999999999
 40
0.1
100
AcDbArc
 50
90.0
 51
180.0
  0
LINE
  5
64B
330
617
100
AcDbEntity
  8
P5mm
 62
3
100
AcDbLine
 10
21.55
 20
14.749999999999998
 11
22.55
 21
14.749999999999998
  0
ARC
  5
64C
330
617
100
AcDbEntity
  8
P5mm
 62
3
100
AcDbCircle
 10
22.55
 20
14.849999999999998
 40
0.1
100
AcDbArc
 50
270.0
 51
0.0
  0
LINE
  5
64D
330
617
100
AcDbEntity
  8
P5mm
 62
3
100
AcDbLine
 10
22.650000000000002
 20
14.849999999999998
 11
22.650000000000002
 21
16.9
  0
ARC
  5
64E
330
617
100
AcDbEntity
  8
P5mm
 62
3
100
AcDbCircle
 10
22.55
 20
16.9
 40
0.1
100
AcDbArc
 50
0.0
 51
90.0
  0
LINE
  5
64F
330
617
100
AcDbEntity
  8
P5mm
 62
3
100
AcDbLine
 10
22.55
 20
17.0
 11
21.55
 21
17.0
  0
ARC
  5
650
330
617
100
AcDbEntity
  8
P5mm
 62
3
100
AcDbCircle
 10
21.55
 20
17.1
 40
0.1
100
AcDbArc
 50
180.0
 51
270.0
  0
LINE
  5
651
330
617
100
AcDbEntity
  8
P5mm
 62
3
100
AcDbLine
 10
21.45
 20
17.1
 11
21.45
 21
19.900000000000002
  0
ARC
  5
652
330
617
100
AcDbEntity
  8
P5mm
 62
3
100
AcDbCircle
 10
21.55
 20
19.900000000000002
 40
0.1
100
AcDbArc
 50
90.0
 51
180.0
  0
LINE
  5
653
330
617
100
AcDbEntity
  8
P5mm
 62
3
100
AcDbLine
 10
21.549999999999997
 20
20.000000000000004
 11
27.4
 21
20.000000000000004
  0
ARC
  5
654
330
617
100
AcDbEntity
  8
P5mm
 62
3
100
AcDbCircle
 10
27.4
 20
19.900000000000002
 40
0.1
100
AcDbArc
 50
0.0
 51
90.0
  0
LINE
  5
655
330
617
100
AcDbEntity
  8
P5mm
 62
3
100
AcDbLine
 10
27.5
 20
19.900000000000002
 11
27.5
 21
-19.899999999999995
  0
ARC
  5
656
330
617
100
AcDbEntity
  8
P5mm
 62
3
100
AcDbCircle
 10
27.4
 20
-19.899999999999995
 40
0.1
100
AcDbArc
 50
270.0
 51
0.0
  0
LINE
  5
657
330
617
100
AcDbEntity
  8
P5mm
 62
3
100
AcDbLine
 10
27.4
 20
-19.999999999999996
 11
21.549999999999997
 21
-19.999999999999996
  0
ARC
  5
658
330
617
100
AcDbEntity
  8
P5mm
 62
3
100
AcDbCircle
 10
21.549999999999997
 20
-19.899999999999995
 40
0.1
100
AcDbArc
 50
180.0
 51
270.0
  0
LINE
  5
659
330
617
100
AcDbEntity
  8
P5mm
 62
3
100
AcDbLine
 10
21.449999999999996
 20
-19.899999999999995
 11
21.449999999999996
 21
-17.099999999999994
  0
ARC
  5
65A
330
617
100
AcDbEntity
  8
P5mm
 62
3
100
AcDbCircle
 10
21.549999999999997
 20
-17.099999999999994
 40
0.1
100
AcDbArc
 50
90.0
 51
180.0
  0
LINE
  5
65B
330
617
100
AcDbEntity
  8
P5mm
 62
3
100
AcDbLine
 10
21.549999999999997
 20
-16.999999999999993
 11
22.549999999999997
 21
-16.999999999999993
  0
ARC
  5
65C
330
617
100
AcDbEntity
  8
P5mm
 62
3
100
AcDbCircle
 10
22.549999999999997
 20
-16.89999999999999
 40
0.1
100
AcDbArc
 50
270.0
 51
0.0
  0
LINE
  5
65D
330
617
100
AcDbEntity
  8
P5mm
 62
3
100
AcDbLine
 10
22.65
 20
-16.89999999999999
 11
22.65
 21
-14.84999999999999
  0
ARC
  5
65E
330
617
100
AcDbEntity
  8
P5mm
 62
3
100
AcDbCircle
 10
22.549999999999997
 20
-14.84999999999999
 40
0.1
100
AcDbArc
 50
0.0
 51
90.0
  0
LINE
  5
65F
330
617
100
AcDbEntity
  8
P5mm
 62
3
100
AcDbLine
 10
22.549999999999997
 20
-14.749999999999991
 11
21.549999999999997
 21
-14.749999999999991
  0
ARC
  5
660
330
617
100
AcDbEntity
  8
P5mm
 62
3
100
AcDbCircle
 10
21.549999999999997
 20
-14.649999999999991
 40
0.1
100
AcDbArc
 50
180.0
 51
270.0
  0
LINE
  5
661
330
617
100
AcDbEntity
  8
P5mm
 62
3
100
AcDbLine
 10
21.449999999999996
 20
-14.649999999999991
 11
21.449999999999996
 21
-8.84999999999999
  0
ARC
  5
662
330
617
100
AcDbEntity
  8
P5mm
 62
3
100
AcDbCircle
 10
21.349999999999994
 20
-8.84999999999999
 40
0.1
100
AcDbArc
 50
0.0
 51
90.0
  0
LINE
  5
663
330
617
100
AcDbEntity
  8
P5mm
 62
3
100
AcDbLine
 10
21.349999999999994
 20
-8.749999999999991
 11
18.649999999999995
 21
-8.749999999999991
  0
ARC
  5
664
330
617
100
AcDbEntity
  8
P5mm
 62
3
100
AcDbCircle
 10
18.649999999999995
 20
-8.84999999999999
 40
0.1
100
AcDbArc
 50
90.0
 51
180.0
  0
LINE
  5
665
330
617
100
AcDbEntity
  8
P5mm
 62
3
100
AcDbLine
 10
18.549999999999994
 20
-8.84999999999999
 11
18.549999999999994
 21
-14.649999999999991
  0
ARC
  5
666
330
617
100
AcDbEntity
  8
P5mm
 62
3
100
AcDbCircle
 10
18.449999999999992
 20
-14.649999999999991
 40
0.1
100
AcDbArc
 50
270.0
 51
0.0
  0
LINE
  5
667
330
617
100
AcDbEntity
  8
P5mm
 62
3
100
AcDbLine
 10
18.449999999999992
 20
-14.749999999999991
 11
17.449999999999992
 21
-14.749999999999991
  0
ARC
  5
668
330
617
100
AcDbEntity
  8
P5mm
 62
3
100
AcDbCircle
 10
17.449999999999992
 20
-14.84999999999999
 40
0.1
100
AcDbArc
 50
90.0
 51
180.0
  0
LINE
  5
669
330
617
100
AcDbEntity
  8
P5mm
 62
3
100
AcDbLine
 10
17.34999999999999
 20
-14.84999999999999
 11
17.34999999999999
 21
-16.89999999999999
  0
ARC
  5
66A
330
617
100
AcDbEntity
  8
P5mm
 62
3
100
AcDbCircle
 10
17.449999999999992
 20
-16.89999999999999
 40
0.1
100
AcDbArc
 50
180.0
 51
270.0
  0
LINE
  5
66B
330
617
100
AcDbEntity
  8
P5mm
 62
3
100
AcDbLine
 10
17.449999999999992
 20
-16.999999999999993
 11
18.449999999999992
 21
-16.999999999999993
  0
ARC
  5
66C
330
617
100
AcDbEntity
  8
P5mm
 62
3
100
AcDbCircle
 10
18.449999999999992
 20
-17.099999999999994
 40
0.1
100
AcDbArc
 50
0.0
 51
90.0
  0
LINE
  5
66D
330
617
100
AcDbEntity
  8
P5mm
 62
3
100
AcDbLine
 10
18.549999999999994
 20
-17.099999999999994
 11
18.549999999999994
 21
-19.899999999999995
  0
ARC
  5
66E
330
617
100
AcDbEntity
  8
P5mm
 62
3
100
AcDbCircle
 10
18.449999999999992
 20
-19.899999999999995
 40
0.1
100
AcDbArc
 50
270.0
 51
0.0
  0
LINE
  5
66F
330
617
100
AcDbEntity
  8
P5mm
 62
3
100
AcDbLine
 10
18.449999999999996
 20
-19.999999999999996
 11
12.6
 21
-19.999999999999996
  0
ARC
  5
670
330
617
100
AcDbEntity
  8
P5mm
 62
3
100
AcDbCircle
 10
12.6
 20
-20.099999999999998
 40
0.1
100
AcDbArc
 50
90.0
 51
180.0
  0
LINE
  5
671
330
617
100
AcDbEntity
  8
P5mm
 62
3
100
AcDbLine
 10
12.5
 20
-20.099999999999998
 11
12.5
 21
-22.9
  0
ARC
  5
672
330
617
100
AcDbEntity
  8
P5mm
 62
3
100
AcDbCircle
 10
12.4
 20
-22.9
 40
0.1
100
AcDbArc
 50
270.0
 51
0.0
  0
LINE
  5
673
330
617
100
AcDbEntity
  8
P5mm
 62
3
100
AcDbLine
 10
12.4
 20
-23.0
 11
-12.4
 21
-23.0
  0
ARC
  5
674
330
617
100
AcDbEntity
  8
P5mm
 62
3
100
AcDbCircle
 10
-12.4
 20
-22.9
 40
0.1
100
AcDbArc
 50
180.0
 51
270.0
  0
LINE
  5
675
330
617
100
AcDbEntity
  8
P5mm
 62
3
100
AcDbLine
 10
-12.5
 20
-22.9
 11
-12.5
 21
-20.099999999999998
  0
ARC
  5
676
330
617
100
AcDbEntity
  8
P5mm
 62
3
100
AcDbCircle
 10
-12.6
 20
-20.099999999999998
 40
0.1
100
AcDbArc
 50
0.0
 51
90.0
  0
LINE
  5
677
330
617
100
AcDbEntity
  8
P5mm
 62
3
100
AcDbLine
 10
-12.6
 20
-19.999999999999996
 11
-18.449999999999996
 21
-19.999999999999996
  0
ARC
  5
678
330
617
100
AcDbEntity
  8
P5mm
 62
3
100
AcDbCircle
 10
-18.449999999999996
 20
-19.899999999999995
 40
0.1
100
AcDbArc
 50
180.0
 51
270.0
  0
LINE
  5
679
330
617
100
AcDbEntity
  8
P5mm
 62
3
100
AcDbLine
 10
-18.549999999999997
 20
-19.899999999999995
 11
-18.549999999999997
 21
-17.099999999999994
  0
ARC
  5
67A
330
617
100
AcDbEntity
  8
P5mm
 62
3
100
AcDbCircle
 10
-18.449999999999996
 20
-17.099999999999994
 40
0.1
100
AcDbArc
 50
90.0
 51
180.0
  0
LINE
  5
67B
330
617
100
AcDbEntity
  8
P5mm
 62
3
100
AcDbLine
 10
-18.449999999999996
 20
-16.999999999999993
 11
-17.449999999999996
 21
-16.999999999999993
  0
ARC
  5
67C
330
617
100
AcDbEntity
  8
P5mm
 62
3
100
AcDbCircle
 10
-17.449999999999996
 20
-16.89999999999999
 40
0.1
100
AcDbArc
 50
270.0
 51
0.0
  0
LINE
  5
67D
330
617
100
AcDbEntity
  8
P5mm
 62
3
100
AcDbLine
 10
-17.349999999999994
 20
-16.89999999999999
 11
-17.349999999999994
 21
-14.84999999999999
  0
ARC
  5
67E
330
617
100
AcDbEntity
  8
P5mm
 62
3
100
AcDbCircle
 10
-17.449999999999996
 20
-14.84999999999999
 40
0.1
100
AcDbArc
 50
0.0
 51
90.0
  0
LINE
  5
67F
330
617
100
AcDbEntity
  8
P5mm
 62
3
100
AcDbLine
 10
-17.449999999999996
 20
-14.749999999999991
 11
-18.449999999999996
 21
-14.749999999999991
  0
ARC
  5
680
330
617
100
AcDbEntity
  8
P5mm
 62
3
100
AcDbCircle
 10
-18.449999999999996
 20
-14.649999999999991
 40
0.1
100
AcDbArc
 50
180.0
 51
270.0
  0
LINE
  5
681
330
617
100
AcDbEntity
  8
P5mm
 62
3
100
AcDbLine
 10
-18.549999999999997
 20
-14.649999999999991
 11
-18.549999999999997
 21
-8.84999999999999
  0
ARC
  5
682
330
617
100
AcDbEntity
  8
P5mm
 62
3
100
AcDbCircle
 10
-18.65
 20
-8.84999999999999
 40
0.1
100
AcDbArc
 50
0.0
 51
90.0
  0
LINE
  5
683
330
617
100
AcDbEntity
  8
P5mm
 62
3
100
AcDbLine
 10
-18.65
 20
-8.749999999999991
 11
-21.349999999999998
 21
-8.749999999999991
  0
ARC
  5
684
330
617
100
AcDbEntity
  8
P5mm
 62
3
100
AcDbCircle
 10
-21.349999999999998
 20
-8.84999999999999
 40
0.1
100
AcDbArc
 50
90.0
 51
180.0
  0
LINE
  5
685
330
617
100
AcDbEntity
  8
P5mm
 62
3
100
AcDbLine
 10
-21.45
 20
-8.84999999999999
 11
-21.45
 21
-14.649999999999991
  0
ARC
  5
686
330
617
100
AcDbEntity
  8
P5mm
 62
3
100
AcDbCircle
 10
-21.55
 20
-14.649999999999991
 40
0.1
100
AcDbArc
 50
270.0
 51
0.0
  0
LINE
  5
687
330
617
100
AcDbEntity
  8
P5mm
 62
3
100
AcDbLine
 10
-21.55
 20
-14.749999999999991
 11
-22.55
 21
-14.749999999999991
  0
ARC
  5
688
330
617
100
AcDbEntity
  8
P5mm
 62
3
100
AcDbCircle
 10
-22.55
 20
-14.84999999999999
 40
0.1
100
AcDbArc
 50
90.0
 51
180.0
  0
LINE
  5
689
330
617
100
AcDbEntity
  8
P5mm
 62
3
100
AcDbLine
 10
-22.650000000000002
 20
-14.84999999999999
 11
-22.650000000000002
 21
-16.89999999999999
  0
ARC
  5
68A
330
617
100
AcDbEntity
  8
P5mm
 62
3
100
AcDbCircle
 10
-22.55
 20
-16.89999999999999
 40
0.1
100
AcDbArc
 50
180.0
 51
270.0
  0
LINE
  5
68B
330
617
100
AcDbEntity
  8
P5mm
 62
3
100
AcDbLine
 10
-22.55
 20
-16.999999999999993
 11
-21.55
 21
-16.999999999999993
  0
ARC
  5
68C
330
617
100
AcDbEntity
  8
P5mm
 62
3
100
AcDbCircle
 10
-21.55
 20
-17.099999999999994
 40
0.1
100
AcDbArc
 50
0.0
 51
90.0
  0
LINE
  5
68D
330
617
100
AcDbEntity
  8
P5mm
 62
3
100
AcDbLine
 10
-21.45
 20
-17.099999999999994
 11
-21.45
 21
-19.899999999999995
  0
ARC
  5
68E
330
617
100
AcDbEntity
  8
P5mm
 62
3
100
AcDbCircle
 10
-21.55
 20
-19.899999999999995
 40
0.1
100
AcDbArc
 50
270.0
 51
0.0
  0
LINE
  5
68F
330
617
100
AcDbEntity
  8
P5mm
 62
3
100
AcDbLine
 10
-21.549999999999997
 20
-19.999999999999996
 11
-27.4
 21
-19.999999999999996
  0
CIRCLE
  5
690
330
617
100
AcDbEntity
  8
P5mm
 62
3
100
AcDbCircle
 10
-17.5
 20
-6.0
 40
1.6
  0
CIRCLE
  5
691
330
617
100
AcDbEntity
  8
P5mm
 62
3
100
AcDbCircle
 10
17.5
 20
-6.0
 40
1.6
  0
LINE
  5
692
330
617
100
AcDbEntity
  8
P5mm
 62
3
100
AcDbLine
 10
-14.5
 20
-6.0
 11
-14.5
 21
9.0
  0
ARC
  5
693
330
617
100
AcDbEntity
  8
P5mm
 62
3
100
AcDbCircle
 10
-4.5
 20
9.0
 40
10.0
100
AcDbArc
 50
90.0
 51
180.0
  0
LINE
  5
694
330
617
100
AcDbEntity
  8
P5mm
 62
3
100
AcDbLine
 10
-4.5
 20
19.0
 11
4.5
 21
19.0
  0
ARC
  5
695
330
617
100
AcDbEntity
  8
P5mm
 62
3
100
AcDbCircle
 10
4.5
 20
9.0
 40
10.0
100
AcDbArc
 50
0.0
 51
90.0
  0
LINE
  5
696
330
617
100
AcDbEntity
  8
P5mm
 62
3
100
AcDbLine
 10
14.5
 20
9.0
 11
14.5
 21
-6.0
  0
ARC
  5
697
330
617
100
AcDbEntity
  8
P5mm
 62
3
100
AcDbCircle
 10
0.0
 20
-6.0
 40
14.5
100
AcDbArc
 50
180.0
 51
0.0
  0
ENDBLK
  5
616
330
617
100
AcDbEntity
  8
0
100
AcDbBlockEnd
  0
BLOCK
  5
698
330
69A
100
AcDbEntity
  8
0
100
AcDbBlockBegin
  2
Washers
  3
Washers
 70
0
 10
0.0
 20
0.0
  1

  0
CIRCLE
  5
69B
330
69A
100
AcDbEntity
  8
P3mm
 62
1
100
AcDbCircle
 10
0.0
 20
0.0
 40
1.6
  0
CIRCLE
  5
69C
330
69A
100
AcDbEntity
  8
P3mm
 62
1
100
AcDbCircle
 10
0.0
 20
0.0
 40
3.5
  0
CIRCLE
  5
69D
330
69A
100
AcDbEntity
  8
P3mm
 62
1
100
AcDbCircle
 10
0.0
 20
10.5
 40
1.6
  0
CIRCLE
  5
69E
330
69A
100
AcDbEntity
  8
P3mm
 62
1
100
AcDbCircle
 10
0.0
 20
10.5
 40
3.5
  0
CIRCLE
  5
69F
330
69A
100
AcDbEntity
  8
P3mm
 62
1
100
AcDbCircle
 10
0.0
 20
21.0
 40
1.6
  0
CIRCLE
  5
6A0
330
69A
100
AcDbEntity
  8
P3mm
 62
1
100
AcDbCircle
 10
0.0
 20
21.0
 40
3.5
  0
CIRCLE
  5
6A1
330
69A
100
AcDbEntity
  8
P3mm
 62
1
100
AcDbCircle
 10
0.0
 20
31.5
 40
1.6
  0
CIRCLE
  5
6A2
330
69A
100
AcDbEntity
  8
P3mm
 62
1
100
AcDbCircle
 10
0.0
 20
31.5
 40
3.5
  0
CIRCLE
  5
6A3
330
69A
100
AcDbEntity
  8
P3mm
 62
1
100
AcDbCircle
 10
0.0
 20
42.0
 40
1.6
  0
CIRCLE
  5
6A4
330
69A
100
AcDbEntity
  8
P3mm
 62
1
100
AcDbCircle
 10
0.0
 20
42.0
 40
3.5
  0
CIRCLE
  5
6A5
330
69A
100
AcDbEntity
  8
P3mm
 62
1
100
AcDbCircle
 10
10.5
 20
0.0
 40
1.6
  0
CIRCLE
  5
6A6
330
69A
100
AcDbEntity
  8
P3mm
 62
1
100
AcDbCircle
 10
10.5
 20
0.0
 40
3.5
  0
CIRCLE
  5
6A7
330
69A
100
AcDbEntity
  8
P3mm
 62
1
100
AcDbCircle
 10
10.5
 20
10.5
 40
1.6
  0
CIRCLE
  5
6A8
330
69A
100
AcDbEntity
  8
P3mm
 62
1
100
AcDbCircle
 10
10.5
 20
10.5
 40
3.5
  0
CIRCLE
  5
6A9
330
69A
100
AcDbEntity
  8
P3mm
 62
1
100
AcDbCircle
 10
10.5
 20
21.0
 40
1.6
  0
CIRCLE
  5
6AA
330
69A
100
AcDbEntity
  8
P3mm
 62
1
100
AcDbCircle
 10
10.5
 20
21.0
 40
3.5
  0
CIRCLE
  5
6AB
330
69A
100
AcDbEntity
  8
P3mm
 62
1
100
AcDbCircle
 10
10.5
 20
31.5
 40
1.6
  0
CIRCLE
  5
6AC
330
69A
100
AcDbEntity
  8
P3mm
 62
1
100
AcDbCircle
 10
10.5
 20
31.5
 40
3.5
  0
CIRCLE
  5
6AD
330
69A
100
AcDbEntity
  8
P3mm
 62
1
100
AcDbCircle
 10
10.5
 20
42.0
 40
1.6
  0
CIRCLE
  5
6AE
330
69A
100
AcDbEntity
  8
P3mm
 62
1
100
AcDbCircle
 10
10.5
 20
42.0
 40
3.5
  0
CIRCLE
  5
6AF
330
69A
100
AcDbEntity
  8
P3mm
 62
1
100
AcDbCircle
 10
21.0
 20
0.0
 40
1.6
  0
CIRCLE
  5
6B0
330
69A
100
AcDbEntity
  8
P3mm
 62
1
100
AcDbCircle
 10
21.0
 20
0.0
 40
3.5
  0
CIRCLE
  5
6B1
330
69A
100
AcDbEntity
  8
P3mm
 62
1
100
AcDbCircle
 10
21.0
 20
10.5
 40
1.6
  0
CIRCLE
  5
6B2
330
69A
100
AcDbEntity
  8
P3mm
 62
1
100
AcDbCircle
 10
21.0
 20
10.5
 40
3.5
  0
CIRCLE
  5
6B3
330
69A
100
AcDbEntity
  8
P3mm
 62
1
100
AcDbCircle
 10
21.0
 20
21.0
 40
1.6
  0
CIRCLE
  5
6B4
330
69A
100
AcDbEntity
  8
P3mm
 62
1
100
AcDbCircle
 10
21.0
 20
21.0
 40
3.5
  0
CIRCLE
  5
6B5
330
69A
100
AcDbEntity
  8
P3mm
 62
1
100
AcDbCircle
 10
21.0
 20
31.5
 40
1.6
  0
CIRCLE
  5
6B6
330
69A
100
AcDbEntity
  8
P3mm
 62
1
100
AcDbCircle
 10
21.0
 20
31.5
 40
3.5
  0
CIRCLE
  5
6B7
330
69A
100
AcDbEntity
  8
P3mm
 62
1
100
AcDbCircle
 10
21.0
 20
42.0
 40
1.6
  0
CIRCLE
  5
6B8
330
69A
100
AcDbEntity
  8
P3mm
 62
1
100
AcDbCircle
 10
21.0
 20
42.0
 40
3.5
  0
CIRCLE
  5
6B9
330
69A
100
AcDbEntity
  8
P3mm
 62
1
100
AcDbCircle
 10
31.5
 20
0.0
 40
1.6
  0
CIRCLE
  5
6BA
330
69A
100
AcDbEntity
  8
P3mm
 62
1
100
AcDbCircle
 10
31.5
 20
0.0
 40
3.5
  0
CIRCLE
  5
6BB
330
69A
100
AcDbEntity
  8
P3mm
 62
1
100
AcDbCircle
 10
31.5
 20
10.5
 40
1.6
  0
CIRCLE
  5
6BC
330
69A
100
AcDbEntity
  8
P3mm
 62
1
100
AcDbCircle
 10
31.5
 20
10.5
 40
3.5
  0
CIRCLE
  5
6BD
330
69A
100
AcDbEntity
  8
P3mm
 62
1
100
AcDbCircle
 10
31.5
 20
21.0
 40
1.6
  0
CIRCLE
  5
6BE
330
69A
100
AcDbEntity
  8
P3mm
 62
1
100
AcDbCircle
 10
31.5
 20
21.0
 40
3.5
  0
CIRCLE
  5
6BF
330
69A
100
AcDbEntity
  8
P3mm
 62
1
100
AcDbCircle
 10
31.5
 20
31.5
 40
1.6
  0
CIRCLE
  5
6C0
330
69A
100
AcDbEntity
  8
P3mm
 62
1
100
AcDbCircle
 10
31.5
 20
31.5
 40
3.5
  0
CIRCLE
  5
6C1
330
69A
100
AcDbEntity
  8
P3mm
 62
1
100
AcDbCircle
 10
31.5
 20
42.0
 40
1.6
  0
CIRCLE
  5
6C2
330
69A
100
AcDbEntity
  8
P3mm
 62
1
100
AcDbCircle
 10
31.5
 20
42.0
 40
3.5
  0
CIRCLE
  5
6C3
330
69A
100
AcDbEntity
  8
P3mm
 62
1
100
AcDbCircle
 10
42.0
 20
0.0
 40
1.6
  0
CIRCLE
  5
6C4
330
69A
100
AcDbEntity
  8
P3mm
 62
1
100
AcDbCircle
 10
42.0
 20
0.0
 40
3.5
  0
CIRCLE
  5
6C5
330
69A
100
AcDbEntity
  8
P3mm
 62
1
100
AcDbCircle
 10
42.0
 20
10.5
 40
1.6
  0
CIRCLE
  5
6C6
330
69A
100
AcDbEntity
  8
P3mm
 62
1
100
AcDbCircle
 10
42.0
 20
10.5
 40
3.5
  0
CIRCLE
  5
6C7
330
69A
100
AcDbEntity
  8
P3mm
 62
1
100
AcDbCircle
 10
42.0
 20
21.0
 40
1.6
  0
CIRCLE
  5
6C8
330
69A
100
AcDbEntity
  8
P3mm
 62
1
100
AcDbCircle
 10
42.0
 20
21.0
 40
3.5
  0
CIRCLE
  5
6C9
330
69A
100
AcDbEntity
  8
P3mm
 62
1
100
AcDbCircle
 10
42.0
 20
31.5
 40
1.6
  0
CIRCLE
  5
6CA
330
69A
100
AcDbEntity
  8
P3mm
 62
1
100
AcDbCircle
 10
42.0
 20
31.5
 40
3.5
  0
CIRCLE
  5
6CB
330
69A
100
AcDbEntity
  8
P3mm
 62
1
100
AcDbCircle
 10
42.0
 20
42.0
 40
1.6
  0
CIRCLE
  5
6CC
330
69A
100
AcDbEntity
  8
P3mm
 62
1
100
AcDbCircle
 10
42.0
 20
42.0
 40
3.5
  0
ENDBLK
  5
699
330
69A
100
AcDbEntity
  8
0
100
AcDbBlockEnd
  0
ENDSEC
  0
SECTION
  2
ENTITIES
  0
TEXT
  5
592
330
1F
100
AcDbEntity
  8
Text
 67
0
100
AcDbText
 10
-200.0
 20
90.0
 40
8.0
  1
Hullpixelbot
 50
0.0
 51
0.0
  7
custom
 41
1.0
 71
0
 72
0
 11
-200.0
 21
90.0
100
AcDbText
 73
0
  0
INSERT
  5
6CD
330
1F
100
AcDbEntity
  8
0
 67
0
100
AcDbBlockReference
  2
Tower
 10
0.0
 20
90.0
 41
1.0
 42
1.0
 43
1.0
 50
0.0
  0
INSERT
  5
6CE
330
1F
100
AcDbEntity
  8
0
 67
0
100
AcDbBlockReference
  2
Tower
 10
90.0
 20
90.0
 41
1.0
 42
1.0
 43
1.0
 50
0.0
  0
INSERT
  5
6CF
330
1F
100
AcDbEntity
  8
0
 67
0
100
AcDbBlockReference
  2
Wheel
 10
0.0
 20
0.0
 41
1.0
 42
1.0
 43
1.0
 50
0.0
  0
INSERT
  5
6D0
330
1F
100
AcDbEntity
  8
0
 67
0
100
AcDbBlockReference
  2
Wheel
 10
90.0
 20
0.0
 41
1.0
 42
1.0
 43
1.0
 50
0.0
  0
INSERT
  5
6D1
330
1F
100
AcDbEntity
  8
0
 67
0
100
AcDbBlockReference
  2
PixelbotTop
 10
-90.0
 20
0.0
 41
1.0
 42
1.0
 43
1.0
 50
0.0
  0
INSERT
  5
6D2
330
1F
100
AcDbEntity
  8
0
 67
0
100
AcDbBlockReference
  2
PixelbotBottom
 10
-180.0
 20
0.0
 41
1.0
 42
1.0
 43
1.0
 50
0.0
  0
ENDSEC
  0
SECTION
  2
OBJECTS
  0
DICTIONARY
  5
C
330
0
100
AcDbDictionary
281
1
  3
ACAD_COLOR
350
4FB
  3
ACAD_GROUP
350
4FC
  3
ACAD_LAYOUT
350
4FD
  3
ACAD_MATERIAL
350
4FE
  3
ACAD_MLEADERSTYLE
350
4FF
  3
ACAD_MLINESTYLE
350
500
  3
ACAD_PLOTSETTINGS
350
501
  3
ACAD_PLOTSTYLENAME
350
503
  3
ACAD_SCALELIST
350
504
  3
ACAD_TABLESTYLE
350
505
  3
ACAD_VISUALSTYLE
350
506
  0
DICTIONARY
  5
4FB
330
C
100
AcDbDictionary
281
1
  0
DICTIONARY
  5
4FC
330
C
100
AcDbDictionary
281
1
  0
DICTIONARY
  5
4FD
330
C
100
AcDbDictionary
281
1
  3
Model
350
507
  3
Layout1
350
508
  0
DICTIONARY
  5
4FE
330
C
100
AcDbDictionary
281
1
  0
DICTIONARY
  5
4FF
330
C
100
AcDbDictionary
281
1
  0
DICTIONARY
  5
500
330
C
100
AcDbDictionary
281
1
  0
DICTIONARY
  5
501
330
C
100
AcDbDictionary
281
1
  0
ACDBPLACEHOLDER
  5
502
330
503
  0
ACDBDICTIONARYWDFLT
  5
503
330
C
100
AcDbDictionary
281
1
  3
Normal
350
502
100
AcDbDictionaryWithDefault
340
502
  0
DICTIONARY
  5
504
330
C
100
AcDbDictionary
281
1
  0
DICTIONARY
  5
505
330
C
100
AcDbDictionary
281
1
  0
DICTIONARY
  5
506
330
C
100
AcDbDictionary
281
1
  0
LAYOUT
  5
507
330
4FD
100
AcDbPlotSettings
  1

  2
DWFx ePlot (XPS Compatible).pc3
  4
ANSI_A_(8.50_x_11.00_Inches)
  6

 40
5.8
 41
17.8
 42
5.8
 43
17.8
 44
215.9
 45
279.4
 46
0.0
 47
0.0
 48
0.0
 49
0.0
140
0.0
141
0.0
142
1.0
143
14.53
 70
11952
 72
0
 73
1
 74
0
  7

 75
0
147
0.069
148
114.98
149
300.29
100
AcDbLayout
  1
Model
 70
1
 71
0
 10
0.0
 20
0.0
 11
12.0
 21
9.0
 12
0.0
 22
0.0
 32
0.0
 14
0.0
 24
0.0
 34
0.0
 15
0.0
 25
0.0
 35
0.0
146
0.0
 13
0.0
 23
0.0
 33
0.0
 16
1.0
 26
0.0
 36
0.0
 17
0.0
 27
1.0
 37
0.0
 76
0
330
1F
  0
LAYOUT
  5
508
330
4FD
100
AcDbPlotSettings
  1

  2
DWFx ePlot (XPS Compatible).pc3
  4
ANSI_A_(8.50_x_11.00_Inches)
  6

 40
5.8
 41
17.8
 42
5.8
 43
17.8
 44
215.9
 45
279.4
 46
0.0
 47
0.0
 48
0.0
 49
0.0
140
0.0
141
0.0
142
1.0
143
1.0
 70
688
 72
0
 73
1
 74
5
  7
acad.ctb
 75
16
147
1.0
148
0.0
149
0.0
100
AcDbLayout
  1
Layout1
 70
1
 71
1
 10
-0.7
 20
-0.23
 11
10.3
 21
8.27
 12
0.0
 22
0.0
 32
0.0
 14
0.63
 24
0.8
 34
0.0
 15
9.0
 25
7.2
 35
0.0
146
0.0
 13
0.0
 23
0.0
 33
0.0
 16
1.0
 26
0.0
 36
0.0
 17
0.0
 27
1.0
 37
0.0
 76
0
330
58
  0
ENDSEC
  0
EOF
